{
    "patcher": {
        "fileversion": 1,
        "appversion": {
            "major": 9,
            "minor": 1,
            "revision": 2,
            "architecture": "x64",
            "modernui": 1
        },
        "classnamespace": "box",
        "rect": [ 118.0, 125.0, 946.0, 674.0 ],
        "boxes": [
            {
                "box": {
                    "id": "obj-17",
                    "maxclass": "newobj",
                    "numinlets": 1,
                    "numoutlets": 1,
                    "outlettype": [ "" ],
                    "patching_rect": [ 228.0, 399.0, 79.0, 22.0 ],
                    "text": "prepend /aed"
                }
            },
            {
                "box": {
                    "id": "obj-16",
                    "maxclass": "newobj",
                    "numinlets": 3,
                    "numoutlets": 1,
                    "outlettype": [ "" ],
                    "patching_rect": [ 228.0, 361.0, 74.0, 22.0 ],
                    "text": "pack 0. 0. 1."
                }
            },
            {
                "box": {
                    "id": "obj-13",
                    "maxclass": "comment",
                    "numinlets": 1,
                    "numoutlets": 0,
                    "patching_rect": [ 397.5, 319.0, 55.0, 20.0 ],
                    "text": "rotate el"
                }
            },
            {
                "box": {
                    "id": "obj-12",
                    "maxclass": "comment",
                    "numinlets": 1,
                    "numoutlets": 0,
                    "patching_rect": [ 265.5, 319.0, 55.0, 20.0 ],
                    "text": "rotate az"
                }
            },
            {
                "box": {
                    "bgmode": 0,
                    "border": 0,
                    "clickthrough": 0,
                    "enablehscroll": 0,
                    "enablevscroll": 0,
                    "id": "obj-10",
                    "lockeddragscroll": 0,
                    "lockedsize": 0,
                    "maxclass": "bpatcher",
                    "name": "spat5.around.maxpat",
                    "numinlets": 1,
                    "numoutlets": 1,
                    "offset": [ 0.0, 0.0 ],
                    "outlettype": [ "" ],
                    "patching_rect": [ 360.0, 207.0, 130.0, 110.0 ],
                    "viewvisibility": 1
                }
            },
            {
                "box": {
                    "bgmode": 0,
                    "border": 0,
                    "clickthrough": 0,
                    "enablehscroll": 0,
                    "enablevscroll": 0,
                    "id": "obj-6",
                    "lockeddragscroll": 0,
                    "lockedsize": 0,
                    "maxclass": "bpatcher",
                    "name": "spat5.around.maxpat",
                    "numinlets": 1,
                    "numoutlets": 1,
                    "offset": [ 0.0, 0.0 ],
                    "outlettype": [ "" ],
                    "patching_rect": [ 228.0, 207.0, 130.0, 110.0 ],
                    "viewvisibility": 1
                }
            },
            {
                "box": {
                    "id": "obj-3",
                    "maxclass": "newobj",
                    "numinlets": 1,
                    "numoutlets": 0,
                    "patching_rect": [ 174.5625, 569.0, 35.0, 22.0 ],
                    "text": "out 1"
                }
            },
            {
                "box": {
                    "id": "obj-2",
                    "maxclass": "newobj",
                    "numinlets": 1,
                    "numoutlets": 0,
                    "patching_rect": [ 7.0, 569.0, 126.0, 22.0 ],
                    "text": "mc.out~ 1 @chans 16"
                }
            },
            {
                "box": {
                    "id": "obj-112",
                    "maxclass": "newobj",
                    "numinlets": 1,
                    "numoutlets": 1,
                    "outlettype": [ "signal" ],
                    "patching_rect": [ 7.0, 161.0, 140.0, 22.0 ],
                    "text": "mc.unpack~ 1 @select 1"
                }
            },
            {
                "box": {
                    "id": "obj-105",
                    "maxclass": "newobj",
                    "numinlets": 1,
                    "numoutlets": 1,
                    "outlettype": [ "multichannelsignal" ],
                    "patching_rect": [ 7.0, 10.0, 118.0, 22.0 ],
                    "saved_object_attributes": {
                        "attr_comment": "",
                        "c": ""
                    },
                    "text": "mc.in~ 1 @chans 16"
                }
            },
            {
                "box": {
                    "bgmode": 0,
                    "border": 0,
                    "clickthrough": 0,
                    "enablehscroll": 0,
                    "enablevscroll": 0,
                    "id": "obj-1",
                    "lockeddragscroll": 0,
                    "lockedsize": 0,
                    "maxclass": "bpatcher",
                    "name": "spat5.iko.beamcontrol-SPARCL~.maxpat",
                    "numinlets": 2,
                    "numoutlets": 2,
                    "offset": [ 0.0, 0.0 ],
                    "outlettype": [ "multichannelsignal", "" ],
                    "patching_rect": [ 7.0, 207.0, 186.5625, 330.0 ],
                    "viewvisibility": 1
                }
            },
            {
                "box": {
                    "id": "obj-120",
                    "maxclass": "number",
                    "numinlets": 1,
                    "numoutlets": 2,
                    "outlettype": [ "", "bang" ],
                    "parameter_enable": 0,
                    "patching_rect": [ 119.0, 128.0, 50.0, 22.0 ]
                }
            },
            {
                "box": {
                    "id": "obj-118",
                    "maxclass": "message",
                    "numinlets": 2,
                    "numoutlets": 1,
                    "outlettype": [ "" ],
                    "patching_rect": [ 60.0, 128.0, 57.0, 22.0 ],
                    "text": "select $1"
                }
            },
            {
                "box": {
                    "id": "obj-110",
                    "maxclass": "newobj",
                    "numinlets": 1,
                    "numoutlets": 1,
                    "outlettype": [ "bang" ],
                    "patching_rect": [ 60.0, 48.0, 58.0, 22.0 ],
                    "text": "loadbang"
                }
            },
            {
                "box": {
                    "id": "obj-109",
                    "maxclass": "newobj",
                    "numinlets": 1,
                    "numoutlets": 3,
                    "outlettype": [ "int", "int", "int" ],
                    "patching_rect": [ 60.0, 81.0, 56.0, 22.0 ],
                    "text": "thispoly~"
                }
            }
        ],
        "lines": [
            {
                "patchline": {
                    "destination": [ "obj-2", 0 ],
                    "source": [ "obj-1", 0 ]
                }
            },
            {
                "patchline": {
                    "destination": [ "obj-3", 0 ],
                    "source": [ "obj-1", 1 ]
                }
            },
            {
                "patchline": {
                    "destination": [ "obj-16", 1 ],
                    "source": [ "obj-10", 0 ]
                }
            },
            {
                "patchline": {
                    "destination": [ "obj-112", 0 ],
                    "source": [ "obj-105", 0 ]
                }
            },
            {
                "patchline": {
                    "destination": [ "obj-118", 0 ],
                    "order": 1,
                    "source": [ "obj-109", 0 ]
                }
            },
            {
                "patchline": {
                    "destination": [ "obj-120", 0 ],
                    "order": 0,
                    "source": [ "obj-109", 0 ]
                }
            },
            {
                "patchline": {
                    "destination": [ "obj-109", 0 ],
                    "source": [ "obj-110", 0 ]
                }
            },
            {
                "patchline": {
                    "destination": [ "obj-1", 0 ],
                    "source": [ "obj-112", 0 ]
                }
            },
            {
                "patchline": {
                    "destination": [ "obj-112", 0 ],
                    "source": [ "obj-118", 0 ]
                }
            },
            {
                "patchline": {
                    "destination": [ "obj-17", 0 ],
                    "source": [ "obj-16", 0 ]
                }
            },
            {
                "patchline": {
                    "destination": [ "obj-1", 1 ],
                    "source": [ "obj-17", 0 ]
                }
            },
            {
                "patchline": {
                    "destination": [ "obj-16", 0 ],
                    "source": [ "obj-6", 0 ]
                }
            }
        ]
    }
}